<mxfile host="app.diagrams.net" modified="2022-02-07T08:59:12.453Z" agent="5.0 (Macintosh; Intel Mac OS X 10_15_7) AppleWebKit/537.36 (KHTML, like Gecko) Chrome/98.0.4758.80 Safari/537.36" etag="TmmLuByNOqYFxUpAFbNg" version="16.4.6" type="github">
  <diagram name="Page-1" id="74e2e168-ea6b-b213-b513-2b3c1d86103e">
    <mxGraphModel dx="1984" dy="415" grid="1" gridSize="10" guides="1" tooltips="1" connect="1" arrows="1" fold="1" page="1" pageScale="1" pageWidth="1100" pageHeight="850" background="none" math="0" shadow="0">
      <root>
        <mxCell id="0" />
        <mxCell id="1" parent="0" />
        <mxCell id="h4wa_y0mAoA6kcFQSZ7C-1" value="HR_GUEST" style="rounded=0;whiteSpace=wrap;html=1;" vertex="1" parent="1">
          <mxGeometry x="170" y="20" width="90" height="50" as="geometry" />
        </mxCell>
        <mxCell id="h4wa_y0mAoA6kcFQSZ7C-4" value="&lt;div style=&quot;text-align: left&quot;&gt;&lt;span&gt;System Privileges:&lt;/span&gt;&lt;/div&gt;&lt;span&gt;&lt;div style=&quot;text-align: left&quot;&gt;&lt;span&gt;- Create Session&lt;/span&gt;&lt;/div&gt;&lt;div style=&quot;text-align: left&quot;&gt;&lt;span&gt;Object Privileges:&lt;/span&gt;&lt;/div&gt;&lt;div style=&quot;text-align: left&quot;&gt;&lt;span&gt;- Grant Select on &amp;lt;master Schema&amp;gt;&lt;/span&gt;&lt;/div&gt;&lt;/span&gt;" style="rounded=0;whiteSpace=wrap;html=1;" vertex="1" parent="1">
          <mxGeometry x="500" y="20" width="200" height="60" as="geometry" />
        </mxCell>
        <mxCell id="h4wa_y0mAoA6kcFQSZ7C-6" value="ODI_GUEST&lt;br&gt;- Grant &amp;lt;g_privilege&amp;gt; on &amp;lt;Raw Schemas&amp;gt;" style="rounded=0;whiteSpace=wrap;html=1;align=left;" vertex="1" parent="1">
          <mxGeometry x="10" y="120" width="120" height="60" as="geometry" />
        </mxCell>
        <mxCell id="h4wa_y0mAoA6kcFQSZ7C-7" value="ODI_DEVELOPER&lt;br&gt;- Grant &amp;lt;d_privilege&amp;gt; on &amp;lt;staging,interface&amp;gt; Schemas" style="rounded=0;whiteSpace=wrap;html=1;align=left;" vertex="1" parent="1">
          <mxGeometry x="150" y="120" width="140" height="60" as="geometry" />
        </mxCell>
        <mxCell id="h4wa_y0mAoA6kcFQSZ7C-8" value="ODI_ADMIN&lt;br&gt;- Grant &amp;lt;a_privileges&amp;gt;&lt;br&gt;on &amp;lt;staging,interface&amp;gt;&lt;br&gt;schemas" style="rounded=0;whiteSpace=wrap;html=1;align=left;" vertex="1" parent="1">
          <mxGeometry x="321" y="118" width="129" height="60" as="geometry" />
        </mxCell>
        <mxCell id="h4wa_y0mAoA6kcFQSZ7C-9" value="ODI Admin owner of &amp;lt;staging,interface&amp;gt; schemas.&lt;br&gt;&lt;div&gt;G_privilege: Select&lt;/div&gt;&lt;div&gt;D_privilege: Select, Insert, update, connection&lt;/div&gt;&lt;div&gt;A_privilege: Drop,Delete&lt;/div&gt;" style="rounded=0;whiteSpace=wrap;html=1;align=left;" vertex="1" parent="1">
          <mxGeometry x="501" y="118" width="200" height="100" as="geometry" />
        </mxCell>
        <mxCell id="h4wa_y0mAoA6kcFQSZ7C-10" value="DEP_GUEST&lt;br&gt;- Grant &amp;lt;g_privilege&amp;gt; on &amp;lt;Deployment stats Schemas&amp;gt;" style="rounded=0;whiteSpace=wrap;html=1;align=left;" vertex="1" parent="1">
          <mxGeometry y="445" width="120" height="60" as="geometry" />
        </mxCell>
        <mxCell id="h4wa_y0mAoA6kcFQSZ7C-11" value="DEP_DEVELOPER&lt;br&gt;- Grant &amp;lt;d_privilege&amp;gt;&lt;br&gt;on &amp;lt;staging.interface&lt;br&gt;,usecases&amp;gt;" style="rounded=0;whiteSpace=wrap;html=1;align=left;" vertex="1" parent="1">
          <mxGeometry x="155" y="445" width="120" height="75" as="geometry" />
        </mxCell>
        <mxCell id="h4wa_y0mAoA6kcFQSZ7C-12" value="DEP_ADMIN&lt;br&gt;- Grant &amp;lt;a_privilege &amp;gt;&lt;br&gt;to &amp;lt;staging.interface&lt;br&gt;,usecases&amp;gt;" style="whiteSpace=wrap;html=1;align=left;" vertex="1" parent="1">
          <mxGeometry x="321" y="445" width="120" height="75" as="geometry" />
        </mxCell>
        <mxCell id="h4wa_y0mAoA6kcFQSZ7C-13" value="" style="rounded=0;whiteSpace=wrap;html=1;" vertex="1" parent="1">
          <mxGeometry y="550" width="120" height="60" as="geometry" />
        </mxCell>
        <mxCell id="h4wa_y0mAoA6kcFQSZ7C-14" value="Final Exposed LAyer (may contains Views/tables)" style="rounded=0;whiteSpace=wrap;html=1;" vertex="1" parent="1">
          <mxGeometry x="-30" y="375" width="770" height="50" as="geometry" />
        </mxCell>
        <mxCell id="h4wa_y0mAoA6kcFQSZ7C-18" value="Dep_admin owner of Deployment artifacts Schema.&lt;br&gt;G_privlege: Select&amp;nbsp;" style="rounded=0;whiteSpace=wrap;html=1;align=left;" vertex="1" parent="1">
          <mxGeometry x="520" y="430" width="210" height="90" as="geometry" />
        </mxCell>
        <mxCell id="h4wa_y0mAoA6kcFQSZ7C-19" value="BU_GUEST&lt;br&gt;- Grant &amp;lt;g_privilege&amp;gt; on &amp;lt;Use Case Schemas&amp;gt;" style="rounded=0;whiteSpace=wrap;html=1;align=left;" vertex="1" parent="1">
          <mxGeometry x="10" y="270" width="120" height="60" as="geometry" />
        </mxCell>
        <mxCell id="h4wa_y0mAoA6kcFQSZ7C-20" value="BU_DEVELOPER&lt;br&gt;- Grant &amp;lt;d_privilege&amp;gt; on &amp;lt;Use Case&amp;gt; Schemas" style="rounded=0;whiteSpace=wrap;html=1;align=left;" vertex="1" parent="1">
          <mxGeometry x="145" y="270" width="140" height="60" as="geometry" />
        </mxCell>
        <mxCell id="h4wa_y0mAoA6kcFQSZ7C-21" value="BU_ADMIN&lt;br&gt;- Grant &amp;lt;a_privileges&amp;gt;&lt;br&gt;on &amp;lt;Use Case&amp;gt;&lt;br&gt;schemas" style="rounded=0;whiteSpace=wrap;html=1;align=left;" vertex="1" parent="1">
          <mxGeometry x="316.5" y="270" width="129" height="60" as="geometry" />
        </mxCell>
        <mxCell id="h4wa_y0mAoA6kcFQSZ7C-22" value="BU Admin owner of &amp;lt;Use Case&amp;gt; schemas.&lt;br&gt;&lt;div&gt;G_privilege: Select&lt;/div&gt;&lt;div&gt;D_privilege: Select, Insert, update, connection&lt;/div&gt;&lt;div&gt;A_privilege: Drop,Delete&lt;/div&gt;" style="rounded=0;whiteSpace=wrap;html=1;align=left;" vertex="1" parent="1">
          <mxGeometry x="501" y="270" width="200" height="100" as="geometry" />
        </mxCell>
      </root>
    </mxGraphModel>
  </diagram>
</mxfile>
